<?xml version="1.0" standalone="no"?>
<!DOCTYPE svg PUBLIC "-//W3C//DTD SVG 20010904//EN"
 "http://www.w3.org/TR/2001/REC-SVG-20010904/DTD/svg10.dtd">
<svg version="1.0" xmlns="http://www.w3.org/2000/svg"
 width="500.000000pt" height="500.000000pt" viewBox="0 0 500.000000 500.000000"
 preserveAspectRatio="xMidYMid meet">

<g transform="translate(0.000000,500.000000) scale(0.100000,-0.100000)"
fill="#16a34a" stroke="none">
<path d="M2451 4748 c-243 -1233 -508 -1653 -1225 -1938 -231 -92 -490 -162
-926 -250 -157 -32 -278 -60 -270 -63 8 -3 109 -24 225 -47 1095 -217 1522
-442 1809 -955 147 -264 256 -615 377 -1214 32 -162 55 -257 60 -245 3 10 24
109 44 219 69 362 163 720 248 945 98 258 208 439 364 600 153 159 302 259
538 360 253 109 605 205 1102 302 95 18 173 35 173 38 0 3 -109 26 -243 53
-712 139 -1120 284 -1404 496 -108 80 -250 231 -324 343 -189 287 -326 702
-456 1381 -21 108 -40 197 -43 197 -3 0 -25 -100 -49 -222z"/>
</g>
</svg>